<svg width="225" height="266" viewBox="0 0 225 266" fill="none" xmlns="http://www.w3.org/2000/svg">
<rect width="225" height="266" fill="white"/>
<path d="M156.326 156.053C157.721 151.169 143.54 129.309 143.54 129.309C143.54 129.309 150.514 133.263 149.351 130.472C148.188 127.682 137.727 113.03 137.727 113.03C137.727 113.03 147.723 118.611 147.723 117.449C147.723 116.286 132.146 96.7506 122.15 81.6334C112.153 66.5162 107.27 70.0047 102.389 69.5393C95.182 64.4222 100.761 42.0968 110.759 37.9103C120.756 33.7238 123.778 33.9565 123.778 33.9565C127.032 33.2585 147.025 33.9565 150.205 34.5125C144.378 23.4647 141.003 21.0108 129.345 17.635C117.688 14.2592 104.462 6.83295 100.817 5.35941C92.1599 1.86215 63.7968 5.81598 57.286 9.30446C50.7752 12.7929 41.2117 30.926 22.4136 57.4452C13.3474 70.2358 -0.601538 80.9339 2.42054 103.493C5.44262 126.053 16.9956 147.11 19.0493 148.611C20.3219 149.542 20.5545 141.169 20.5545 141.169C20.5545 141.169 38.2232 169.011 45.4303 172.997C52.6373 176.983 72.3979 183.729 72.3979 183.729H72.5851C73.7627 186.829 75.3892 189.428 77.2777 190.907C77.4166 192.315 77.0349 193.009 76.0153 193.879C71.7675 197.823 55.579 223.933 53.5355 223.678C51.4935 223.953 30.8231 227.373 29.8226 229.091C29.8226 229.091 26.8502 229.348 26.6703 232.172C26.6703 232.172 29.0371 230.621 29.7597 231.356C29.7597 231.356 35.4952 231.773 41.7822 232C34.6614 232.973 25.4459 234.317 24.9896 235.503C24.9896 235.503 22.0948 236.226 22.3639 239.042C22.3639 239.042 24.4557 237.137 25.2851 237.747C25.2851 237.747 31.2181 238.008 38.3534 237.055C35.2377 239.385 32.1761 242.548 32.7832 246.079C33.7267 244.007 34.8647 243.706 37.3236 243.729C39.7825 243.753 45.5546 239.612 46.6181 238.053C47.683 236.495 58.7678 233.497 63.8846 230.516C66.4401 231.666 70.7493 233.306 74.1005 233.464C75.7798 233.543 76.7599 232.567 76.7599 232.567L78.5854 233.851C78.5854 233.851 79.7688 227.756 73.0415 228.186C69.073 228.439 63.2512 228.068 65.4922 223.584C69.2924 215.982 82.3374 197.851 84.6369 195.294C85.9168 193.871 86.7199 190.788 87.1806 188.331C88.5659 186.601 89.7917 184.479 90.8492 182.312C93.7514 180.544 99.6946 178.174 107.25 181.82C107.095 189.684 110.186 198.462 114.505 201.859C114.275 202.327 113.904 202.734 113.374 203.187C108.745 207.487 74.6462 242.052 72.4184 241.773C70.192 242.073 51.7743 241.61 50.6846 243.483C50.6846 243.483 47.4445 243.763 47.25 246.842C47.25 246.842 49.8289 245.152 50.6173 245.952C50.6173 245.952 53.4258 246.486 59.9468 246.583C53.8836 247.648 45.9276 249.151 45.4186 250.471C45.4186 250.471 42.2649 251.259 42.5574 254.329C42.5574 254.329 44.8364 252.253 45.7419 252.919C45.7419 252.919 52.2088 253.203 59.9848 252.165C56.5883 254.705 53.2517 258.153 53.9144 262C54.9427 259.742 56.1831 259.413 58.8629 259.438C61.5427 259.463 67.834 254.951 68.994 253.252C70.154 251.554 82.2365 248.286 87.8126 245.038C90.5991 246.292 95.2946 248.08 98.9457 248.251C100.776 248.337 101.843 247.273 101.843 247.273L103.834 248.672C103.834 248.672 105.124 242.03 97.7916 242.499C93.4661 242.775 87.1207 242.37 89.5635 237.483C93.7046 229.197 120.267 207.516 122.774 204.73C123.797 203.594 124.535 201.486 125.058 199.386C126.785 197.314 128.292 194.656 129.564 191.982C134.112 197.122 143.427 207.241 145.867 206.752C147.03 206.519 144.006 198.844 144.006 198.844C144.006 198.844 154.235 207.914 156.096 208.379C157.957 208.845 153.772 200.239 153.772 200.239C153.772 200.239 163.768 208.416 165.629 208.397C167.488 208.379 162.142 199.308 162.142 199.308C162.142 199.308 180.973 210.239 183.995 210.704C187.017 211.17 173.999 196.285 173.999 196.285C173.999 196.285 198.875 212.343 201.897 211.868C204.919 211.392 182.369 187.914 182.369 187.914C182.369 187.914 222.825 211.849 223.983 209.31C225.137 206.773 167.02 161.403 156.326 156.053Z" fill="black"/>
</svg>
